# xmcd
#
# Track frame offsets: 
#        150
#        13690
#        26728
#        44807
#        60789
#
# Disc length: 989 seconds
#
# Revision: 0
# Processed by: cddbd v1.5.2PL0 Copyright (c) Steve Scherf et al.
# Submitted via: ExactAudioCopy v0.95a4
#
DISCID=3903db05
DTITLE=Neko Case - Fox Confessor Brings the Flood Bonus Disc
DYEAR=2006
DGENRE=Country
TTITLE0=Set Out Running
TTITLE1=Furnace Room Lullaby
TTITLE2=Deep Red Bells
TTITLE3=I Wish I Was the Moon
TTITLE4=Behind the House (demo)
EXTD=
EXTT0=
EXTT1=
EXTT2=
EXTT3=
EXTT4=
PLAYORDER=
